<svg width="27" height="27" viewBox="0 0 27 27" fill="none" xmlns="http://www.w3.org/2000/svg">
<path d="M9.78153 7.32547C9.78153 7.17793 9.84014 7.03643 9.94447 6.9321C10.0488 6.82778 10.1903 6.76917 10.3378 6.76917H17.0136C17.1611 6.76917 17.3026 6.82778 17.4069 6.9321C17.5113 7.03643 17.5699 7.17793 17.5699 7.32547C17.5699 7.47302 17.5113 7.61452 17.4069 7.71884C17.3026 7.82317 17.1611 7.88178 17.0136 7.88178H10.3378C10.1903 7.88178 10.0488 7.82317 9.94447 7.71884C9.84014 7.61452 9.78153 7.47302 9.78153 7.32547ZM9.22522 13.4449C8.93014 13.4449 8.64714 13.5621 8.43848 13.7708C8.22982 13.9794 8.1126 14.2624 8.1126 14.5575C8.1126 14.8526 8.22982 15.1356 8.43848 15.3442C8.64714 15.5529 8.93014 15.6701 9.22522 15.6701C9.52031 15.6701 9.80331 15.5529 10.012 15.3442C10.2206 15.1356 10.3378 14.8526 10.3378 14.5575C10.3378 14.2624 10.2206 13.9794 10.012 13.7708C9.80331 13.5621 9.52031 13.4449 9.22522 13.4449ZM18.1262 13.4449C17.8311 13.4449 17.5481 13.5621 17.3394 13.7708C17.1308 13.9794 17.0136 14.2624 17.0136 14.5575C17.0136 14.8526 17.1308 15.1356 17.3394 15.3442C17.5481 15.5529 17.8311 15.6701 18.1262 15.6701C18.4213 15.6701 18.7043 15.5529 18.9129 15.3442C19.1216 15.1356 19.2388 14.8526 19.2388 14.5575C19.2388 14.2624 19.1216 13.9794 18.9129 13.7708C18.7043 13.5621 18.4213 13.4449 18.1262 13.4449ZM12.5631 14.5575C12.5631 14.2624 12.6803 13.9794 12.889 13.7708C13.0976 13.5621 13.3806 13.4449 13.6757 13.4449C13.9708 13.4449 14.2538 13.5621 14.4624 13.7708C14.6711 13.9794 14.7883 14.2624 14.7883 14.5575C14.7883 14.8526 14.6711 15.1356 14.4624 15.3442C14.2538 15.5529 13.9708 15.6701 13.6757 15.6701C13.3806 15.6701 13.0976 15.5529 12.889 15.3442C12.6803 15.1356 12.5631 14.8526 12.5631 14.5575ZM9.22522 17.8954C8.93014 17.8954 8.64714 18.0126 8.43848 18.2212C8.22982 18.4299 8.1126 18.7129 8.1126 19.008C8.1126 19.3031 8.22982 19.5861 8.43848 19.7947C8.64714 20.0034 8.93014 20.1206 9.22522 20.1206C9.52031 20.1206 9.80331 20.0034 10.012 19.7947C10.2206 19.5861 10.3378 19.3031 10.3378 19.008C10.3378 18.7129 10.2206 18.4299 10.012 18.2212C9.80331 18.0126 9.52031 17.8954 9.22522 17.8954ZM12.5631 19.008C12.5631 18.7129 12.6803 18.4299 12.889 18.2212C13.0976 18.0126 13.3806 17.8954 13.6757 17.8954C13.9708 17.8954 14.2538 18.0126 14.4624 18.2212C14.6711 18.4299 14.7883 18.7129 14.7883 19.008C14.7883 19.3031 14.6711 19.5861 14.4624 19.7947C14.2538 20.0034 13.9708 20.1206 13.6757 20.1206C13.3806 20.1206 13.0976 20.0034 12.889 19.7947C12.6803 19.5861 12.5631 19.3031 12.5631 19.008Z" fill="black"/>
<path d="M15.4815 3.4313H11.8699C10.646 3.4313 9.69141 3.4313 8.92704 3.49361C8.15043 3.55703 7.51958 3.68832 6.95214 3.97649C6.00981 4.45655 5.24368 5.22267 4.76362 6.16501C4.47434 6.73245 4.34416 7.3633 4.28074 8.13991C4.21844 8.90539 4.21844 9.85779 4.21844 11.0828V15.807C4.21844 17.0308 4.21844 17.9855 4.28074 18.7498C4.34416 19.5264 4.47545 20.1573 4.76362 20.7247C5.24368 21.6671 6.00981 22.4332 6.95214 22.9133C7.51958 23.2025 8.15043 23.3327 8.92704 23.3961C9.69252 23.4584 10.6449 23.4584 11.8699 23.4584H15.4815C16.7054 23.4584 17.66 23.4584 18.4244 23.3961C19.201 23.3327 19.8318 23.2014 20.3993 22.9133C21.3416 22.4332 22.1077 21.6671 22.5878 20.7247C22.8771 20.1573 23.0072 19.5264 23.0707 18.7498C23.133 17.9855 23.133 17.032 23.133 15.807V11.0828C23.133 9.8589 23.133 8.90428 23.0707 8.13991C23.0072 7.3633 22.8759 6.73245 22.5878 6.16501C22.1077 5.22267 21.3416 4.45655 20.3993 3.97649C19.8318 3.68721 19.201 3.55703 18.4244 3.49361C17.6589 3.4313 16.7065 3.4313 15.4815 3.4313ZM7.45616 4.96783C7.84112 4.77201 8.30842 4.66075 9.01716 4.60289C9.73146 4.54392 10.6405 4.54392 11.8955 4.54392H15.4559C16.7109 4.54392 17.6199 4.54392 18.3331 4.60289C19.0419 4.66075 19.5092 4.77201 19.8941 4.96783C20.6271 5.34122 21.223 5.93714 21.5964 6.67014C21.7923 7.0551 21.9035 7.5224 21.9614 8.23114C22.0037 8.73961 22.0159 9.34599 22.0192 10.107H5.33106C5.33551 9.34599 5.34663 8.7385 5.38891 8.23114C5.44677 7.5224 5.55803 7.0551 5.75385 6.67014C6.12724 5.93714 6.72317 5.34122 7.45616 4.96783ZM5.33106 11.2196H22.0203V15.7814C22.0203 17.0364 22.0203 17.9454 21.9614 18.6586C21.9035 19.3673 21.7923 19.8346 21.5964 20.2196C21.223 20.9526 20.6271 21.5485 19.8941 21.9219C19.5092 22.1177 19.0419 22.229 18.3342 22.2869C17.6199 22.3458 16.7109 22.3458 15.4559 22.3458H11.8955C10.6405 22.3458 9.73146 22.3458 9.01828 22.2869C8.30954 22.229 7.84224 22.1177 7.45727 21.9219C6.72428 21.5485 6.12836 20.9526 5.75496 20.2196C5.55914 19.8346 5.44788 19.3673 5.39003 18.6597C5.33106 17.9454 5.33106 17.0364 5.33106 15.7814V11.2196Z" fill="black"/>
<path fill-rule="evenodd" clip-rule="evenodd" d="M9.50338 7.32546C9.50338 7.10414 9.5913 6.8919 9.74779 6.7354C9.90428 6.57891 10.1165 6.49099 10.3378 6.49099H17.0136C17.2349 6.49099 17.4471 6.57891 17.6036 6.7354C17.7601 6.8919 17.848 7.10414 17.848 7.32546C17.848 7.54677 17.7601 7.75902 17.6036 7.91551C17.4471 8.07201 17.2349 8.15992 17.0136 8.15992H10.3378C10.1165 8.15992 9.90428 8.07201 9.74779 7.91551C9.5913 7.75902 9.50338 7.54677 9.50338 7.32546ZM7.83445 14.5575C7.83445 14.1886 7.98098 13.8349 8.2418 13.5741C8.50262 13.3132 8.85637 13.1667 9.22522 13.1667C9.59408 13.1667 9.94783 13.3132 10.2087 13.5741C10.4695 13.8349 10.616 14.1886 10.616 14.5575C10.616 14.9263 10.4695 15.2801 10.2087 15.5409C9.94783 15.8017 9.59408 15.9483 9.22522 15.9483C8.85637 15.9483 8.50262 15.8017 8.2418 15.5409C7.98098 15.2801 7.83445 14.9263 7.83445 14.5575ZM16.7354 14.5575C16.7354 14.1886 16.8819 13.8349 17.1428 13.5741C17.4036 13.3132 17.7573 13.1667 18.1262 13.1667C18.495 13.1667 18.8488 13.3132 19.1096 13.5741C19.3704 13.8349 19.517 14.1886 19.517 14.5575C19.517 14.9263 19.3704 15.2801 19.1096 15.5409C18.8488 15.8017 18.495 15.9483 18.1262 15.9483C17.7573 15.9483 17.4036 15.8017 17.1428 15.5409C16.8819 15.2801 16.7354 14.9263 16.7354 14.5575ZM12.2849 14.5575C12.2849 14.1886 12.4315 13.8349 12.6923 13.5741C12.9531 13.3132 13.3068 13.1667 13.6757 13.1667C14.0446 13.1667 14.3983 13.3132 14.6591 13.5741C14.9199 13.8349 15.0665 14.1886 15.0665 14.5575C15.0665 14.9263 14.9199 15.2801 14.6591 15.5409C14.3983 15.8017 14.0446 15.9483 13.6757 15.9483C13.3068 15.9483 12.9531 15.8017 12.6923 15.5409C12.4315 15.2801 12.2849 14.9263 12.2849 14.5575ZM7.83445 19.008C7.83445 18.6391 7.98098 18.2854 8.2418 18.0245C8.50262 17.7637 8.85637 17.6172 9.22522 17.6172C9.59408 17.6172 9.94783 17.7637 10.2087 18.0245C10.4695 18.2854 10.616 18.6391 10.616 19.008C10.616 19.3768 10.4695 19.7306 10.2087 19.9914C9.94783 20.2522 9.59408 20.3987 9.22522 20.3987C8.85637 20.3987 8.50262 20.2522 8.2418 19.9914C7.98098 19.7306 7.83445 19.3768 7.83445 19.008ZM12.2849 19.008C12.2849 18.6391 12.4315 18.2854 12.6923 18.0245C12.9531 17.7637 13.3068 17.6172 13.6757 17.6172C14.0446 17.6172 14.3983 17.7637 14.6591 18.0245C14.9199 18.2854 15.0665 18.6391 15.0665 19.008C15.0665 19.3768 14.9199 19.7306 14.6591 19.9914C14.3983 20.2522 14.0446 20.3987 13.6757 20.3987C13.3068 20.3987 12.9531 20.2522 12.6923 19.9914C12.4315 19.7306 12.2849 19.3768 12.2849 19.008ZM15.4937 3.15314C16.7076 3.15314 17.6711 3.15314 18.4466 3.21656C19.241 3.28109 19.9119 3.41683 20.5261 3.72836C21.5204 4.23554 22.3286 5.0445 22.8348 6.03927C23.1474 6.65121 23.2832 7.32323 23.3477 8.11764C23.4111 8.89314 23.4111 9.85667 23.4111 11.0705V15.8192C23.4111 17.0331 23.4111 17.9966 23.3477 18.7721C23.2832 19.5665 23.1474 20.2374 22.8359 20.8516C22.329 21.8457 21.5205 22.6538 20.5261 23.1603C19.9119 23.4729 19.241 23.6086 18.4466 23.6732C17.6711 23.7366 16.7076 23.7366 15.4937 23.7366H11.8577C10.6438 23.7366 9.68029 23.7366 8.90479 23.6732C8.11038 23.6086 7.43947 23.4729 6.82642 23.1614C5.83189 22.6547 5.02332 21.8461 4.51662 20.8516C4.20398 20.2374 4.06824 19.5665 4.0037 18.7721C3.94028 17.9966 3.94028 17.0331 3.94028 15.8192V11.0705C3.94028 9.85667 3.94028 8.89314 4.0037 8.11764C4.06824 7.32323 4.20398 6.65232 4.51551 6.03927C5.0225 5.04457 5.83148 4.23599 6.82642 3.72947C7.43836 3.41683 8.11038 3.28109 8.90479 3.21656C9.68029 3.15314 10.6438 3.15314 11.8588 3.15314H15.4937ZM9.04053 4.87992C8.35071 4.93555 7.92235 5.04348 7.583 5.21593C6.90278 5.56258 6.34973 6.11563 6.00308 6.79585C5.83062 7.1352 5.72381 7.56356 5.66707 8.25338C5.63147 8.6873 5.61811 9.19911 5.61144 9.82885H21.7389C21.7393 9.30322 21.7211 8.77773 21.6843 8.25338C21.6287 7.56356 21.5208 7.1352 21.3483 6.79585C21.0017 6.11563 20.4486 5.56258 19.7684 5.21593C19.4291 5.04348 19.0007 4.93667 18.3109 4.87992C17.6099 4.82318 16.7154 4.82207 15.4559 4.82207H11.8955C10.6349 4.82207 9.74037 4.82207 9.04053 4.87992ZM22.017 9.82885C22.0176 9.29578 21.9991 8.76287 21.9614 8.23113C21.9035 7.52239 21.7923 7.05509 21.5964 6.67013C21.223 5.93713 20.6271 5.34121 19.8941 4.96782C19.5092 4.772 19.0419 4.66074 18.3342 4.60288C17.6199 4.54391 16.7109 4.54391 15.4559 4.54391H11.8955C10.6405 4.54391 9.73147 4.54391 9.01828 4.60288C8.30954 4.66074 7.84224 4.772 7.45727 4.96782C6.72428 5.34121 6.12836 5.93713 5.75497 6.67013C5.55915 7.05509 5.44788 7.52239 5.39003 8.23113C5.35331 8.67618 5.33996 9.19577 5.3344 9.82885L5.33106 10.107H22.0203L22.017 9.82885ZM21.7422 11.4978H5.60921V15.7814C5.60921 17.042 5.60921 17.9365 5.66707 18.6363C5.7227 19.3262 5.83062 19.7545 6.00308 20.0939C6.34973 20.7741 6.90278 21.3271 7.583 21.6738C7.92235 21.8462 8.35071 21.9531 9.04053 22.0098C9.74148 22.0665 10.6349 22.0677 11.8955 22.0677H15.4559C16.7165 22.0677 17.611 22.0677 18.3109 22.0098C19.0007 21.9542 19.4291 21.8462 19.7684 21.6738C20.4486 21.3271 21.0017 20.7741 21.3483 20.0939C21.5208 19.7545 21.6276 19.3262 21.6843 18.6363C21.7411 17.9354 21.7422 17.0408 21.7422 15.7814V11.4978ZM11.8699 3.43129H15.4815C16.7054 3.43129 17.66 3.43129 18.4244 3.4936C19.201 3.55702 19.8318 3.68831 20.3993 3.97648C21.3416 4.45654 22.1077 5.22266 22.5878 6.165C22.8771 6.73243 23.0072 7.36329 23.0707 8.13989C23.133 8.90426 23.133 9.85778 23.133 11.0828V15.807C23.133 17.0308 23.133 17.9855 23.0707 18.7498C23.0072 19.5264 22.8759 20.1573 22.5878 20.7247C22.1077 21.6671 21.3416 22.4332 20.3993 22.9132C19.8318 23.2025 19.201 23.3327 18.4244 23.3961C17.66 23.4584 16.7065 23.4584 15.4815 23.4584H11.8699C10.646 23.4584 9.69141 23.4584 8.92704 23.3961C8.15043 23.3327 7.51958 23.2014 6.95214 22.9132C6.00981 22.4332 5.24368 21.6671 4.76362 20.7247C4.47434 20.1573 4.34417 19.5264 4.28075 18.7498C4.21844 17.9855 4.21844 17.0319 4.21844 15.807V11.0828C4.21844 9.85889 4.21844 8.90426 4.28075 8.13989C4.34417 7.36329 4.47545 6.73243 4.76362 6.165C5.24368 5.22266 6.00981 4.45654 6.95214 3.97648C7.51958 3.68719 8.15043 3.55702 8.92704 3.4936C9.69252 3.43129 10.6449 3.43129 11.8699 3.43129ZM5.33106 11.2196V15.7814C5.33106 17.0364 5.33106 17.9454 5.39003 18.6586C5.44788 19.3673 5.55915 19.8346 5.75497 20.2196C6.12836 20.9526 6.72428 21.5485 7.45727 21.9219C7.84224 22.1177 8.30954 22.229 9.01828 22.2868C9.73147 22.3458 10.6405 22.3458 11.8955 22.3458H15.4559C16.7109 22.3458 17.6199 22.3458 18.3331 22.2868C19.0419 22.229 19.5092 22.1177 19.8941 21.9219C20.6271 21.5485 21.223 20.9526 21.5964 20.2196C21.7923 19.8346 21.9035 19.3673 21.9614 18.6597C22.0203 17.9454 22.0203 17.0364 22.0203 15.7814V11.2196H5.33106ZM9.78153 7.32546C9.78153 7.17792 9.84015 7.03642 9.94447 6.93209C10.0488 6.82776 10.1903 6.76915 10.3378 6.76915H17.0136C17.1611 6.76915 17.3026 6.82776 17.4069 6.93209C17.5113 7.03642 17.5699 7.17792 17.5699 7.32546C17.5699 7.473 17.5113 7.6145 17.4069 7.71883C17.3026 7.82316 17.1611 7.88177 17.0136 7.88177H10.3378C10.1903 7.88177 10.0488 7.82316 9.94447 7.71883C9.84015 7.6145 9.78153 7.473 9.78153 7.32546ZM9.22522 13.4449C8.93014 13.4449 8.64714 13.5621 8.43849 13.7707C8.22983 13.9794 8.11261 14.2624 8.11261 14.5575C8.11261 14.8526 8.22983 15.1356 8.43849 15.3442C8.64714 15.5529 8.93014 15.6701 9.22522 15.6701C9.52031 15.6701 9.80331 15.5529 10.012 15.3442C10.2206 15.1356 10.3378 14.8526 10.3378 14.5575C10.3378 14.2624 10.2206 13.9794 10.012 13.7707C9.80331 13.5621 9.52031 13.4449 9.22522 13.4449ZM17.0136 14.5575C17.0136 14.2624 17.1308 13.9794 17.3394 13.7707C17.5481 13.5621 17.8311 13.4449 18.1262 13.4449C18.4213 13.4449 18.7043 13.5621 18.9129 13.7707C19.1216 13.9794 19.2388 14.2624 19.2388 14.5575C19.2388 14.8526 19.1216 15.1356 18.9129 15.3442C18.7043 15.5529 18.4213 15.6701 18.1262 15.6701C17.8311 15.6701 17.5481 15.5529 17.3394 15.3442C17.1308 15.1356 17.0136 14.8526 17.0136 14.5575ZM12.5631 14.5575C12.5631 14.2624 12.6803 13.9794 12.889 13.7707C13.0976 13.5621 13.3806 13.4449 13.6757 13.4449C13.9708 13.4449 14.2538 13.5621 14.4624 13.7707C14.6711 13.9794 14.7883 14.2624 14.7883 14.5575C14.7883 14.8526 14.6711 15.1356 14.4624 15.3442C14.2538 15.5529 13.9708 15.6701 13.6757 15.6701C13.3806 15.6701 13.0976 15.5529 12.889 15.3442C12.6803 15.1356 12.5631 14.8526 12.5631 14.5575ZM8.11261 19.008C8.11261 18.7129 8.22983 18.4299 8.43849 18.2212C8.64714 18.0126 8.93014 17.8953 9.22522 17.8953C9.52031 17.8953 9.80331 18.0126 10.012 18.2212C10.2206 18.4299 10.3378 18.7129 10.3378 19.008C10.3378 19.303 10.2206 19.586 10.012 19.7947C9.80331 20.0034 9.52031 20.1206 9.22522 20.1206C8.93014 20.1206 8.64714 20.0034 8.43849 19.7947C8.22983 19.586 8.11261 19.303 8.11261 19.008ZM12.5631 19.008C12.5631 18.7129 12.6803 18.4299 12.889 18.2212C13.0976 18.0126 13.3806 17.8953 13.6757 17.8953C13.9708 17.8953 14.2538 18.0126 14.4624 18.2212C14.6711 18.4299 14.7883 18.7129 14.7883 19.008C14.7883 19.303 14.6711 19.586 14.4624 19.7947C14.2538 20.0034 13.9708 20.1206 13.6757 20.1206C13.3806 20.1206 13.0976 20.0034 12.889 19.7947C12.6803 19.586 12.5631 19.303 12.5631 19.008Z" fill="black"/>
</svg>
