<svg width="27" height="27" viewBox="0 0 27 28" fill="none" xmlns="http://www.w3.org/2000/svg">
<path d="M13.6757 3.54155C11.4707 3.5408 9.32718 4.26784 7.57766 5.60986C5.82813 6.95188 4.57048 8.83383 3.99985 10.9637C3.42922 13.0935 3.57753 15.3522 4.42175 17.3891C5.26598 19.426 6.75893 21.1274 8.66891 22.2291L9.63133 22.7854L8.5176 24.7125L7.55407 24.1562C5.69367 23.0815 4.14893 21.5361 3.07514 19.6752C2.00134 17.8143 1.43633 15.7036 1.43689 13.5551C1.43689 6.79596 6.91654 1.31631 13.6757 1.31631C15.0142 1.31631 16.3037 1.53105 17.512 1.93048L18.569 2.27873L17.8714 4.39271L16.8144 4.04334C15.8016 3.71004 14.742 3.54064 13.6757 3.54155ZM23.6681 5.1148L17.502 11.2809C18.0553 12.2121 18.2499 13.3131 18.0495 14.3776C17.8491 15.4421 17.2674 16.3969 16.4134 17.0632C15.5594 17.7294 14.4917 18.0613 13.4105 17.9968C12.3293 17.9322 11.3087 17.4755 10.5401 16.7123C9.77147 15.9491 9.30757 14.9318 9.23533 13.851C9.1631 12.7703 9.48748 11.7003 10.1477 10.8416C10.8079 9.98285 11.7586 9.3944 12.8216 9.18648C13.8846 8.97857 14.987 9.16546 15.9221 9.71214L22.0949 3.54155L23.6681 5.1148ZM24.9521 8.66182L25.3003 9.71881C25.6998 10.9271 25.9145 12.2166 25.9145 13.5551C25.9145 18.0846 23.4534 22.0388 19.7996 24.1539L18.8371 24.7102L17.7223 22.7854L18.6847 22.228C20.2067 21.3488 21.4704 20.0844 22.3489 18.562C23.2274 17.0396 23.6896 15.3128 23.6893 13.5551C23.6907 12.4885 23.5216 11.4286 23.1886 10.4153L22.8392 9.35832L24.9521 8.66182ZM13.6757 11.3299C13.0855 11.3299 12.5195 11.5643 12.1022 11.9816C11.6849 12.399 11.4505 12.965 11.4505 13.5551C11.4505 14.1453 11.6849 14.7113 12.1022 15.1286C12.5195 15.5459 13.0855 15.7804 13.6757 15.7804C14.2659 15.7804 14.8319 15.5459 15.2492 15.1286C15.6665 14.7113 15.9009 14.1453 15.9009 13.5551C15.9009 12.965 15.6665 12.399 15.2492 11.9816C14.8319 11.5643 14.2659 11.3299 13.6757 11.3299Z" fill="black"/>
</svg>
